HIERARCHY
ROOT Hips
{
	OFFSET 0.000000 0.000000 0.000000 
	CHANNELS 6 Xposition Yposition Zposition Zrotation Yrotation Xrotation
	JOINT LeftUpLeg
	{
		OFFSET 1.363060 -1.794630 0.839290 
		CHANNELS 3 Zrotation Yrotation Xrotation
		JOINT LeftLeg
		{
			OFFSET 2.448110 -6.726130 0.000000 
			CHANNELS 3 Zrotation Yrotation Xrotation
			JOINT LeftFoot
			{
				OFFSET 2.562200 -7.039590 0.000000 
				CHANNELS 3 Zrotation Yrotation Xrotation
				JOINT LeftToeBase
				{
					OFFSET 0.157640 -0.433110 2.322550 
					CHANNELS 3 Zrotation Yrotation Xrotation
					End Site
					{
						OFFSET 0.000000 0.000000 0.000000 
					}
				}
			}
		}
	}
	JOINT RightUpLeg
	{
		OFFSET -1.305520 -1.794630 0.839290 
		CHANNELS 3 Zrotation Yrotation Xrotation
		JOINT RightLeg
		{
			OFFSET -2.542530 -6.985550 0.000000 
			CHANNELS 3 Zrotation Yrotation Xrotation
			JOINT RightFoot
			{
				OFFSET -2.568260 -7.056230 0.000000 
				CHANNELS 3 Zrotation Yrotation Xrotation
				JOINT RightToeBase
				{
					OFFSET -0.164730 -0.452590 2.363150 
					CHANNELS 3 Zrotation Yrotation Xrotation
					End Site
					{
						OFFSET 0.000000 0.000000 0.000000 
					}
				}
			}
		}
	}
	JOINT Spine
	{
		OFFSET 0.028270 2.035590 -0.193380 
		CHANNELS 3 Zrotation Yrotation Xrotation
		JOINT Spine1
		{
			OFFSET 0.056720 2.048850 -0.042750 
			CHANNELS 3 Zrotation Yrotation Xrotation
			JOINT Neck1
			{
				OFFSET -0.054170 1.746240 0.172020 
				CHANNELS 3 Zrotation Yrotation Xrotation
				JOINT Head
				{
					OFFSET 0.104070 1.761360 -0.123970 
					CHANNELS 3 Zrotation Yrotation Xrotation
					End Site
					{
						OFFSET 0.000000 0.000000 0.000000 
					}
				}
			}
			JOINT LeftArm
			{
				OFFSET 3.362410 1.200890 -0.311210 
				CHANNELS 3 Zrotation Yrotation Xrotation
				JOINT LeftForeArm
				{
					OFFSET 4.983000 -0.000000 -0.000000 
					CHANNELS 3 Zrotation Yrotation Xrotation
					JOINT LeftHand
					{
						OFFSET 3.483560 -0.000000 -0.000000 
						CHANNELS 3 Zrotation Yrotation Xrotation
						JOINT LeftHandIndex1
						{
							OFFSET 0.715260 -0.000000 -0.000000 
							CHANNELS 3 Zrotation Yrotation Xrotation
							End Site
							{
								OFFSET 0.000000 0.000000 0.000000 
							}
						}
					}
				}
			}
			JOINT RightArm
			{
				OFFSET -3.136600 1.374050 -0.404650 
				CHANNELS 3 Zrotation Yrotation Xrotation
				JOINT RightForeArm
				{
					OFFSET -5.241900 -0.000000 -0.000000 
					CHANNELS 3 Zrotation Yrotation Xrotation
					JOINT RightHand
					{
						OFFSET -3.444170 -0.000000 -0.000000 
						CHANNELS 3 Zrotation Yrotation Xrotation
						JOINT RightHandIndex1
						{
							OFFSET -0.622530 -0.000000 -0.000000 
							CHANNELS 3 Zrotation Yrotation Xrotation
							End Site
							{
								OFFSET 0.000000 0.000000 0.000000 
							}
						}
					}
				}
			}
		}
	}
}
MOTION
Frames: 16
Frame Time: 0.041667
10.567291 14.038308 -27.004120 9.717859 0.742484 -36.633985 4.606877 14.011715 -22.346777 -49.750464 44.123354 29.713844 19.570947 -1.168781 54.488457 0.869600 -5.945600 -16.626700 -5.960115 -33.591719 -27.805292 -3.949592 -36.941024 51.137933 -16.517885 -22.008827 54.062289 -0.297600 3.507700 -9.695500 -31.465377 -0.537066 27.020876 13.144797 -12.032047 -0.674856 6.543860 -4.520864 6.330987 4.607200 -2.051900 7.911400 -69.011702 -34.118346 32.019117 37.103229 -27.302623 -35.677609 -3.145846 -9.600734 10.068366 -7.125000 0.000000 0.000000 65.815181 23.066783 35.955743 -41.989023 46.506022 -45.430986 2.130368 1.813205 2.324254 7.125000 0.000000 0.000000 
10.568336 14.044430 -27.007704 9.584613 0.793458 -36.661036 4.823880 13.370991 -21.477720 -50.527813 43.561412 28.154588 20.108503 -0.920327 55.150801 1.187900 -6.916600 -19.468700 -5.656175 -33.518699 -27.839686 -3.138593 -37.538785 51.456298 -16.688500 -21.970785 54.068856 -0.317500 3.622200 -10.016100 -31.015227 -4.100553 27.059135 13.132463 -10.632587 0.558154 6.711338 -4.435068 6.380797 4.805600 -2.043800 8.121600 -71.139933 -33.571252 31.030229 38.741285 -29.271183 -37.043536 -1.723101 -9.871200 5.939594 -7.125000 0.000000 0.000000 67.838060 22.609588 35.481956 -44.987927 48.661172 -45.890632 2.130716 2.401574 -2.138724 7.125000 0.000000 0.000000 
10.562363 14.053389 -27.017409 9.349556 0.795238 -36.786490 4.997873 12.982927 -20.940041 -50.180366 43.381324 27.967500 20.167508 -0.871750 55.176410 0.983200 -6.311600 -17.691300 -5.451996 -33.645502 -27.797886 -2.815498 -37.767960 51.495320 -16.682507 -22.354087 53.916487 -0.221400 3.029000 -8.359500 -31.057704 -5.377399 26.874026 13.117088 -9.973512 1.111836 6.838036 -4.475888 6.429066 4.945200 -2.075200 8.240800 -72.592716 -33.341285 30.088493 39.986054 -31.028098 -38.937444 -0.035432 -10.176286 1.187407 -7.125000 0.000000 0.000000 69.299097 22.466391 34.074242 -46.742551 50.084482 -46.894640 2.000776 2.300607 -4.499125 7.125000 0.000000 0.000000 
10.554002 14.051000 -27.022486 9.218060 0.703689 -36.954771 5.356211 12.176530 -19.895287 -50.493475 42.834456 26.904184 20.525607 -0.707230 55.625234 0.725300 -5.441800 -15.173100 -5.355601 -33.825594 -27.782023 -3.245061 -37.563989 51.686869 -16.492541 -22.681960 53.713514 -0.160800 2.583500 -7.121200 -31.409193 -5.775598 26.404653 13.046619 -9.648577 1.654934 6.937906 -4.560707 6.402698 4.980300 -2.111100 8.318000 -73.745971 -33.400223 29.134022 41.060931 -32.762491 -40.963030 2.031048 -10.084230 -4.546814 -7.125000 0.000000 0.000000 70.822270 22.423706 33.031864 -48.680469 51.423605 -48.296501 2.176590 2.658636 -8.499901 7.125000 0.000000 0.000000 
10.550717 14.046670 -27.024277 9.204448 0.635561 -36.928986 5.032310 12.319037 -19.489372 -49.919798 42.496060 26.511392 20.762977 -0.687918 56.307593 0.724400 -5.438500 -15.163700 -5.196045 -34.010079 -27.847494 -2.937636 -37.903064 52.073432 -16.497237 -22.617290 53.699144 -0.164600 2.614200 -7.206300 -32.087300 -7.947373 25.279350 13.205879 -8.137272 3.341494 7.297053 -4.707921 6.223079 5.096400 -2.187900 8.646600 -76.535881 -32.613859 28.346159 43.310267 -36.533258 -43.063000 4.441625 -9.282457 -10.824498 -7.125000 0.000000 0.000000 74.119378 22.315072 31.617597 -53.520903 54.472546 -49.971037 2.557543 3.506589 -11.741001 7.125000 0.000000 0.000000 
10.545193 14.045475 -27.035625 9.464411 0.331553 -36.908771 4.536379 13.036905 -20.108032 -49.695428 42.626850 26.777183 20.689003 -0.848296 56.387665 0.916600 -6.100000 -17.074900 -5.294610 -33.869511 -27.704861 -2.223510 -38.410082 52.204596 -16.614625 -22.665652 53.655929 -0.142200 2.430300 -6.696400 -32.992843 -6.391467 24.378465 13.302795 -7.557323 3.376746 7.375252 -4.931693 6.024003 5.046400 -2.296800 8.900800 -76.867188 -32.711159 27.294141 44.264898 -38.505446 -45.308461 6.499262 -7.834135 -17.198409 -7.125000 0.000000 0.000000 74.603823 22.484257 30.263826 -55.613700 55.421600 -52.324938 3.096346 3.918903 -14.526567 7.125000 0.000000 0.000000 
10.543550 14.038906 -27.045927 9.613262 0.069629 -37.075962 4.392836 13.281724 -20.676678 -49.693803 42.929363 27.252713 20.473677 -1.014874 56.002112 0.919200 -6.108500 -17.099600 -5.535240 -33.822481 -27.464763 -2.261214 -38.372847 52.100933 -16.597904 -22.861880 53.662654 -0.123600 2.266400 -6.242500 -33.513523 -3.794166 23.993519 12.889122 -7.775890 2.390923 7.172836 -5.161950 5.879387 4.745300 -2.402500 8.831800 -76.126736 -33.272285 26.041009 44.725205 -39.388618 -47.690911 8.238520 -5.837944 -23.067766 -7.125000 0.000000 0.000000 74.165959 22.345850 28.689925 -56.686063 55.939253 -55.734943 3.567874 4.045683 -17.615601 7.125000 0.000000 0.000000 
10.554151 14.025766 -27.045479 9.156856 -0.181612 -37.149111 4.021470 13.948774 -21.098283 -46.445075 43.544091 30.030617 19.614322 -1.421146 55.241493 0.596100 -4.942500 -13.744800 -5.374228 -34.423354 -27.451799 -2.716122 -38.078223 51.957037 -16.473868 -22.822655 53.850137 -0.139300 2.405800 -6.628500 -33.989111 -2.961136 23.448131 12.516809 -7.115845 2.182829 7.352574 -5.445584 5.575362 4.775100 -2.533200 8.608400 -76.900758 -32.006951 25.751141 46.561349 -42.457573 -50.189855 8.846843 -3.999666 -28.199379 -7.125000 0.000000 0.000000 75.331780 21.575602 26.133298 -60.319351 58.098829 -59.605622 3.938050 4.298723 -20.275979 7.125000 0.000000 0.000000 
10.560870 14.008148 -27.047122 8.793996 -0.643434 -37.201142 4.034091 14.115800 -21.253160 -44.938339 43.742036 31.333553 19.236989 -1.733006 55.235491 0.815000 -5.760700 -16.091600 -5.101795 -34.657182 -27.395864 -2.550377 -38.156874 51.884297 -16.535664 -22.786350 53.913512 -0.131300 2.335600 -6.434100 -34.302385 -0.923907 23.323322 12.444619 -6.568564 1.439199 7.620300 -5.663618 5.397077 5.576100 -2.628600 8.237700 -76.811041 -32.107762 24.837633 47.752284 -44.195180 -52.793332 8.917250 -2.411471 -32.142442 -7.125000 0.000000 0.000000 75.175721 21.349185 24.188796 -62.287968 59.076732 -62.904614 4.383914 4.209000 -22.089908 7.125000 0.000000 0.000000 
10.564006 13.999040 -27.052348 8.780458 -0.831205 -37.265035 3.954193 14.174668 -21.245951 -44.967891 43.736071 31.260821 19.262825 -1.786589 55.366405 0.925000 -6.127100 -17.153600 -5.139475 -34.638345 -27.332459 -2.633681 -38.147366 51.990950 -16.431354 -22.900020 53.789974 -0.102600 2.065900 -5.687800 -34.428068 0.040849 23.119275 12.488043 -6.199884 1.004617 7.836612 -5.789009 5.232185 6.063500 -2.686100 8.261500 -76.477936 -31.919486 23.570281 49.292916 -46.357555 -55.439804 8.872030 -1.255355 -34.290735 -7.125000 0.000000 0.000000 75.525073 21.173999 22.299994 -65.015945 60.407850 -66.095706 4.693925 4.084144 -23.444244 7.125000 0.000000 0.000000 
10.576249 14.015315 -27.055483 8.917441 -0.728708 -37.277540 4.130818 13.671805 -20.542063 -46.316282 43.330740 29.655420 19.788390 -1.442158 55.720953 0.938500 -6.170500 -17.279900 -5.299771 -34.578374 -27.349458 -3.116431 -37.836211 52.112932 -16.220876 -23.015637 53.687710 -0.111800 2.155500 -5.935700 -34.330274 -0.949910 22.984091 12.280134 -6.301891 1.429378 7.537270 -5.764722 5.301260 5.311800 -2.722800 8.934000 -76.597208 -31.790321 22.320196 50.987883 -48.476438 -57.653495 8.808680 -0.640359 -34.995131 -7.125000 0.000000 0.000000 76.868218 20.699789 20.264962 -69.189983 62.649050 -69.608261 4.976522 4.132147 -24.506410 7.125000 0.000000 0.000000 
10.585208 14.032485 -27.061157 8.849315 -0.844075 -37.242246 4.516422 13.068109 -19.895528 -47.323634 42.951194 28.433777 20.166708 -1.239125 56.000630 0.803100 -5.719600 -15.973000 -5.138820 -34.453059 -27.312801 -2.632480 -37.991363 52.061614 -16.348585 -23.224117 53.871490 -0.191600 2.819100 -7.775500 -34.255137 -1.259078 23.023942 12.354803 -6.255633 1.591637 7.398215 -5.694996 5.439918 5.247800 -2.723300 9.274200 -77.071237 -32.618585 20.958003 52.116677 -49.656442 -59.656799 8.561769 -0.318683 -35.061313 -7.125000 0.000000 0.000000 77.429360 20.265989 18.465037 -73.030584 64.605992 -72.976940 5.292435 4.088948 -25.311263 7.125000 0.000000 0.000000 
10.583267 14.017704 -27.076984 8.593153 -0.869499 -37.375288 5.024521 12.449671 -19.563264 -47.449349 42.939679 28.343933 20.099516 -1.403320 55.767769 0.821000 -5.781600 -16.151900 -5.020121 -34.587953 -27.290774 -2.743286 -37.862632 51.808901 -16.239485 -23.711350 53.534514 -0.078500 1.806900 -4.972400 -34.171433 -1.103651 23.094459 12.376231 -6.364150 1.529896 7.359690 -5.696336 5.512909 5.388900 -2.731500 9.503700 -77.143671 -33.634384 19.370378 53.357757 -50.885662 -62.171197 8.174578 -0.003722 -34.559750 -7.125000 0.000000 0.000000 77.509690 20.390918 16.619789 -76.267972 66.142594 -75.868705 5.477418 3.948415 -25.984434 7.125000 0.000000 0.000000 
10.582222 13.993366 -27.093856 8.523026 -1.291292 -37.589893 5.308683 11.854648 -18.530782 -47.077329 42.558333 27.774681 20.205173 -1.389154 55.828696 0.906500 -6.067200 -16.979400 -5.047744 -34.822424 -27.218386 -3.588497 -37.258984 51.762967 -16.003758 -23.750831 53.633945 -0.063600 1.627700 -4.477800 -34.414529 0.466075 22.826591 11.634949 -6.411131 0.589494 7.351687 -6.012499 5.172020 5.201900 -2.862300 9.093200 -76.289617 -32.205527 18.467651 55.362494 -53.255888 -65.134848 7.731326 0.287869 -33.719652 -7.125000 0.000000 0.000000 77.972776 19.756431 14.139619 -80.265288 67.512995 -78.723572 5.383261 3.594556 -26.588321 7.125000 0.000000 0.000000 
10.591927 13.989185 -27.101471 8.477690 -1.513225 -37.588203 5.421912 11.430995 -17.622183 -46.841228 42.016347 26.985638 20.480255 -1.302204 56.401857 0.677000 -5.261100 -14.654800 -4.944853 -34.803379 -27.154900 -3.462970 -37.245270 51.805899 -16.081772 -23.444497 53.897906 -0.087600 1.909500 -5.255700 -34.502433 0.856073 22.774377 11.377314 -6.325754 0.580970 7.268337 -6.217333 5.056190 5.014100 -2.958500 8.990100 -76.488770 -31.561098 17.559679 57.738979 -55.627431 -67.910780 7.595891 0.251014 -32.807514 -7.125000 0.000000 0.000000 78.634876 19.596860 12.028427 -84.855576 69.020711 -81.390682 5.144717 3.478795 -27.000046 7.125000 0.000000 0.000000 
10.610740 13.998293 -27.108339 8.318826 -1.477102 -37.381608 5.302259 11.862097 -18.173330 -45.862252 42.194120 28.075842 20.170273 -1.463456 56.370158 0.485300 -4.467200 -12.395000 -4.598763 -34.497208 -26.986027 -1.266340 -38.345932 51.459155 -16.730297 -23.335410 54.285102 -0.132400 2.345400 -6.461100 -34.516267 1.336801 23.081077 11.965618 -6.383613 1.232049 6.943623 -6.123719 5.434151 4.939200 -2.954900 9.156200 -77.967419 -33.121500 15.774487 59.928971 -57.416480 -70.457915 7.758762 0.108952 -31.847911 -7.125000 0.000000 0.000000 78.679967 20.042948 10.429206 -88.510296 70.817062 -83.735773 4.898864 3.498315 -27.417628 7.125000 0.000000 0.000000 
